<svg fill="none" height="763" width="945" xmlns="http://www.w3.org/2000/svg" xmlns:xlink="http://www.w3.org/1999/xlink"><filter id="a" color-interpolation-filters="sRGB" filterUnits="userSpaceOnUse" height="206" width="186" x="758.5" y="329.5"><feFlood flood-opacity="0" result="BackgroundImageFix"/><feColorMatrix in="SourceAlpha" values="0 0 0 0 0 0 0 0 0 0 0 0 0 0 0 0 0 0 127 0"/><feOffset dy="2.767"/><feGaussianBlur stdDeviation="1.107"/><feColorMatrix values="0 0 0 0 0 0 0 0 0 0 0 0 0 0 0 0 0 0 0.07 0"/><feBlend in2="BackgroundImageFix" result="effect1_dropShadow"/><feColorMatrix in="SourceAlpha" values="0 0 0 0 0 0 0 0 0 0 0 0 0 0 0 0 0 0 127 0"/><feOffset dy="6.65"/><feGaussianBlur stdDeviation="2.66"/><feColorMatrix values="0 0 0 0 0 0 0 0 0 0 0 0 0 0 0 0 0 0 0.04317 0"/><feBlend in2="effect1_dropShadow" result="effect2_dropShadow"/><feColorMatrix in="SourceAlpha" values="0 0 0 0 0 0 0 0 0 0 0 0 0 0 0 0 0 0 127 0"/><feOffset dy="12.522"/><feGaussianBlur stdDeviation="5.009"/><feColorMatrix values="0 0 0 0 0 0 0 0 0 0 0 0 0 0 0 0 0 0 0.0339075 0"/><feBlend in2="effect2_dropShadow" result="effect3_dropShadow"/><feColorMatrix in="SourceAlpha" values="0 0 0 0 0 0 0 0 0 0 0 0 0 0 0 0 0 0 127 0"/><feOffset dy="22.336"/><feGaussianBlur stdDeviation="8.935"/><feColorMatrix values="0 0 0 0 0 0 0 0 0 0 0 0 0 0 0 0 0 0 0.0282784 0"/><feBlend in2="effect3_dropShadow" result="effect4_dropShadow"/><feColorMatrix in="SourceAlpha" values="0 0 0 0 0 0 0 0 0 0 0 0 0 0 0 0 0 0 127 0"/><feOffset dy="41.778"/><feGaussianBlur stdDeviation="16.711"/><feColorMatrix values="0 0 0 0 0 0 0 0 0 0 0 0 0 0 0 0 0 0 0.0235573 0"/><feBlend in2="effect4_dropShadow" result="effect5_dropShadow"/><feColorMatrix in="SourceAlpha" values="0 0 0 0 0 0 0 0 0 0 0 0 0 0 0 0 0 0 127 0"/><feOffset dy="100"/><feGaussianBlur stdDeviation="40"/><feColorMatrix values="0 0 0 0 0 0 0 0 0 0 0 0 0 0 0 0 0 0 0.0174624 0"/><feBlend in2="effect5_dropShadow" result="effect6_dropShadow"/><feBlend in="SourceGraphic" in2="effect6_dropShadow" result="shape"/></filter><filter id="b" color-interpolation-filters="sRGB" filterUnits="userSpaceOnUse" height="231" width="186" x=".5" y="531.5"><feFlood flood-opacity="0" result="BackgroundImageFix"/><feColorMatrix in="SourceAlpha" values="0 0 0 0 0 0 0 0 0 0 0 0 0 0 0 0 0 0 127 0"/><feOffset dy="2.767"/><feGaussianBlur stdDeviation="1.107"/><feColorMatrix values="0 0 0 0 0 0 0 0 0 0 0 0 0 0 0 0 0 0 0.07 0"/><feBlend in2="BackgroundImageFix" result="effect1_dropShadow"/><feColorMatrix in="SourceAlpha" values="0 0 0 0 0 0 0 0 0 0 0 0 0 0 0 0 0 0 127 0"/><feOffset dy="6.65"/><feGaussianBlur stdDeviation="2.66"/><feColorMatrix values="0 0 0 0 0 0 0 0 0 0 0 0 0 0 0 0 0 0 0.04317 0"/><feBlend in2="effect1_dropShadow" result="effect2_dropShadow"/><feColorMatrix in="SourceAlpha" values="0 0 0 0 0 0 0 0 0 0 0 0 0 0 0 0 0 0 127 0"/><feOffset dy="12.522"/><feGaussianBlur stdDeviation="5.009"/><feColorMatrix values="0 0 0 0 0 0 0 0 0 0 0 0 0 0 0 0 0 0 0.0339075 0"/><feBlend in2="effect2_dropShadow" result="effect3_dropShadow"/><feColorMatrix in="SourceAlpha" values="0 0 0 0 0 0 0 0 0 0 0 0 0 0 0 0 0 0 127 0"/><feOffset dy="22.336"/><feGaussianBlur stdDeviation="8.935"/><feColorMatrix values="0 0 0 0 0 0 0 0 0 0 0 0 0 0 0 0 0 0 0.0282784 0"/><feBlend in2="effect3_dropShadow" result="effect4_dropShadow"/><feColorMatrix in="SourceAlpha" values="0 0 0 0 0 0 0 0 0 0 0 0 0 0 0 0 0 0 127 0"/><feOffset dy="41.778"/><feGaussianBlur stdDeviation="16.711"/><feColorMatrix values="0 0 0 0 0 0 0 0 0 0 0 0 0 0 0 0 0 0 0.0235573 0"/><feBlend in2="effect4_dropShadow" result="effect5_dropShadow"/><feColorMatrix in="SourceAlpha" values="0 0 0 0 0 0 0 0 0 0 0 0 0 0 0 0 0 0 127 0"/><feOffset dy="100"/><feGaussianBlur stdDeviation="40"/><feColorMatrix values="0 0 0 0 0 0 0 0 0 0 0 0 0 0 0 0 0 0 0.0174624 0"/><feBlend in2="effect5_dropShadow" result="effect6_dropShadow"/><feBlend in="SourceGraphic" in2="effect6_dropShadow" result="shape"/></filter><path d="m81 1h25v25h-25zm-25 0h25v25h-25zm52 50h25v25h-25zm-52-25h25v25h-25zm152 25h25v25h-25zm51-25h25v25h-25zm-76 25h25v25h-25zm25 25h25v25h-25zm-25 0h25v25h-25zm-25 203h25v25h-25zm-25 0h25v25h-25zm25 25h25v25h-25zm-25 0h25v25h-25zm0 25h25v25h-25zm-25 0h25v25h-25zm25 25h25v25h-25zm-25 0h25v25h-25zm379 103h25v25h-25zm-25 0h25v25h-25zm25 25h25v25h-25zm-25 0h25v25h-25zm0 152h25v25h-25zm-25 0h25v25h-25zm25 25h25v25h-25zm102-51h25v25h-25zm0 25h25v25h-25zm-127 26h25v25h-25zm-25-25h25v25h-25zm-25 0h25v25h-25zm25 25h25v25h-25zm-25 0h25v25h-25zm-103 50h25v25h-25zm-76-25h25v25h-25zm51 25h25v25h-25zm0 25h25v25h-25zm103-100h25v25h-25zm-25 0h25v25h-25zm25 25h25v25h-25zm-25 0h25v25h-25zm-256-127h25v25h-25zm1 127h25v25h-25zm-1-102h25v25h-25zm0-75h25v25h-25zm0 25h25v25h-25zm-25 25h25v25h-25zm0-25h25v25h-25zm0 50h25v25h-25zm51 152h25v25h-25zm-25 0h25v25h-25zm25 25h25v25h-25zm-25 0h25v25h-25zm49-177h25v25h-25zm1-50h25v25h-25zm-26 50h25v25h-25zm26 51h25v25h-25zm25 0h25v25h-25zm101-507h25v25h-25zm-25 0h25v25h-25zm25 25h25v25h-25zm-25 0h25v25h-25zm-25-25h25v25h-25zm-25 0h25v25h-25zm-51 27h25v25h-25zm-25 0h25v25h-25zm457 177h25v25h-25zm-25 50h25v25h-25zm-26 51h25v25h-25zm26-151h25v25h-25zm0 75h25v25h-25zm50 0h25v25h-25zm25-25h25v25h-25zm0-25h25v25h-25zm50-25h25v25h-25zm-151-102h25v25h-25zm25 0h25v25h-25zm-25-25h25v25h-25zm176 177h25v25h-25zm-25 0h25v25h-25zm0 25h25v25h-25zm1 50h25v25h-25zm-26-50h25v25h-25zm50 0h25v25h-25zm25 0h25v25h-25zm-150-100h25v25h-25zm225 100h25v25h-25zm50 0h25v25h-25zm50 0h25v25h-25zm-150 0h25v25h-25zm-25 51h25v25h-25zm-49 24h25v25h-25zm-76 2h25v25h-25zm0 25h25v25h-25zm0 25h25v25h-25zm-25 0h25v25h-25zm75 101h25v25h-25zm-25 0h25v25h-25zm-25-76h25v25h-25z" opacity=".1" stroke="#000"/><g filter="url(#a)"><path d="m839 330h25v25h-25z" fill="#fff"/><path d="m839 330h25v25h-25z" stroke="#e2e2e2"/></g><g filter="url(#b)"><path d="m81 532h25v50h-25z" fill="#fff"/><path d="m81 532h25v50h-25z" stroke="#e2e2e2"/></g></svg>